<?xml version="1.0" encoding="UTF-8" standalone="no" ?>
<!DOCTYPE svg PUBLIC "-//W3C//DTD SVG 1.1//EN" "http://www.w3.org/Graphics/SVG/1.1/DTD/svg11.dtd">
<svg xmlns="http://www.w3.org/2000/svg" xmlns:xlink="http://www.w3.org/1999/xlink" version="1.1" width="100%" height="100%" viewBox="0 0 1080 1080" xml:space="preserve">
<desc>Created with Fabric.js 5.2.4</desc>
<defs>
</defs>
<g transform="matrix(1 0 0 1 540 540)" id="becbe755-320e-4608-811a-1419adec055b"  >
<rect style="stroke: none; stroke-width: 1; stroke-dasharray: none; stroke-linecap: butt; stroke-dashoffset: 0; stroke-linejoin: miter; stroke-miterlimit: 4; fill: rgb(255,255,255); fill-rule: nonzero; opacity: 1; visibility: hidden;" vector-effect="non-scaling-stroke"  x="-540" y="-540" rx="0" ry="0" width="1080" height="1080" />
</g>
<g transform="matrix(1 0 0 1 540 540)" id="6cdbcb42-66bf-42a5-a2da-7a88ceb87c54"  >
</g>
<g transform="matrix(7.59 0 0 7.59 540 540)" id="4276bd03-24c4-4071-b81d-a18cc3b3bad5"  >
<circle style="stroke: rgb(0,0,0); stroke-width: 0; stroke-dasharray: none; stroke-linecap: butt; stroke-dashoffset: 0; stroke-linejoin: miter; stroke-miterlimit: 4; fill: rgb(255,191,26); fill-rule: nonzero; opacity: 1;" vector-effect="non-scaling-stroke"  cx="0" cy="0" r="35" />
</g>
<g transform="matrix(1 0 0 1 540 540)" id="e5f83b66-7263-4fa4-b899-c9b24e633999"  >
<path style="stroke: rgb(0,0,0); stroke-width: 0; stroke-dasharray: none; stroke-linecap: butt; stroke-dashoffset: 0; stroke-linejoin: miter; stroke-miterlimit: 4; fill: rgb(47,110,184); fill-rule: nonzero; opacity: 1;" vector-effect="non-scaling-stroke"  transform=" translate(-480.12, 480.12)" d="M 555.239 -331.761 L 523.311 -363.689 Q 513.235 -374.348 498.684 -374.435 Q 484.134 -374.522 474.067 -364.839 Q 463 -354.239 463 -339.787 Q 463 -325.335 474.239 -315 L 527.5649999999999 -260.913 Q 539.0609999999999 -249.435 554.65 -249.435 Q 570.239 -249.435 582.1519999999999 -260.913 L 721.2389999999999 -401.23900000000003 Q 732 -411.538 732 -425.269 Q 732 -439 721.239 -450.13100000000003 Q 710.3040000000001 -459.781 696.272 -459.771 Q 682.239 -459.761 672.4780000000001 -449.761 L 555.239 -331.761 Z M 333 -350.239 L 343.478 -350.239 Q 359.63300000000004 -350.239 371.43600000000004 -361.489 Q 383.23900000000003 -372.738 383.23900000000003 -390.036 Q 383.23900000000003 -407.233 371.43600000000004 -418.617 Q 359.633 -430 343.478 -430 L 332.761 -430 Q 315.481 -430 304.24 -418.765 Q 293 -407.529 293 -390.486 Q 293 -373.239 304.208 -361.739 Q 315.415 -350.239 333 -350.239 Z M 328 -480.239 L 514.239 -480.239 Q 528.9770000000001 -480.239 539.1080000000001 -490.35299999999995 Q 549.239 -500.46799999999996 549.239 -515.419 Q 549.239 -530.269 539.1080000000001 -540.135 Q 528.977 -550 514.239 -550 L 327.761 -550 Q 311.731 -550 302.365 -540.009 Q 293 -530.018 293 -515.248 Q 293 -500.47800000000007 302.434 -490.35900000000004 Q 311.86800000000005 -480.23900000000003 328 -480.23900000000003 Z M 328 -600.239 L 514.239 -600.239 Q 528.9770000000001 -600.239 539.1080000000001 -610.3530000000001 Q 549.239 -620.4680000000001 549.239 -635.4190000000001 Q 549.239 -650.2690000000001 539.1080000000001 -660.1350000000001 Q 528.977 -670 514.239 -670 L 327.761 -670 Q 311.731 -670 302.365 -660.009 Q 293 -650.018 293 -635.248 Q 293 -620.4780000000001 302.434 -610.359 Q 311.86800000000005 -600.239 328 -600.239 Z M 479.841 -62.804 Q 393.653 -62.804 317.69100000000003 -95.724 Q 241.72900000000004 -128.645 185.18700000000004 -185.187 Q 128.64500000000004 -241.729 95.72500000000004 -317.86400000000003 Q 62.805000000000035 -393.99800000000005 62.805000000000035 -480.46700000000004 Q 62.805000000000035 -566.83 95.78400000000003 -642.7840000000001 Q 128.76300000000003 -718.738 185.59300000000002 -775.5580000000001 Q 242.423 -832.3790000000001 318.175 -864.9070000000002 Q 393.92600000000004 -897.4350000000002 480.004 -897.4350000000002 Q 566.444 -897.4350000000002 642.743 -864.9290000000002 Q 719.042 -832.4240000000002 775.6200000000001 -775.6290000000002 Q 832.1970000000001 -718.8340000000003 864.8160000000001 -642.5350000000003 Q 897.4350000000002 -566.2370000000003 897.4350000000002 -479.7240000000003 Q 897.4350000000002 -393.22700000000026 864.9070000000002 -317.8090000000003 Q 832.3790000000001 -242.3910000000003 775.5580000000001 -185.7610000000003 Q 718.738 -129.1310000000003 642.5110000000001 -95.9680000000003 Q 566.2840000000001 -62.8040000000003 479.8410000000001 -62.8040000000003 Z" stroke-linecap="round" />
</g>
<g transform="matrix(NaN NaN NaN NaN 0 0)"  >
<g style=""   >
</g>
</g>
<g transform="matrix(NaN NaN NaN NaN 0 0)"  >
<g style=""   >
</g>
</g>
</svg>