<svg version="1.2" xmlns="http://www.w3.org/2000/svg" viewBox="0 0 1080 1080" width="1080" height="1080">
	<title>logo1-svg</title>
	<style>
		.s0 { fill: #ffbf1a;stroke: #000000;stroke-width: .4 } 
		.s1 { fill: #2f6eb8;stroke: #000000;stroke-width: .4 } 
	</style>
	<g id="becbe755-320e-4608-811a-1419adec055b">
	</g>
	<g id="6cdbcb42-66bf-42a5-a2da-7a88ceb87c54">
	</g>
	<g id="4276bd03-24c4-4071-b81d-a18cc3b3bad5">
		<path id="Layer" class="s0" d="m540 883.7c-190.1 0-343.7-153.6-343.7-343.7 0-190.1 153.6-343.7 343.7-343.7 190.1 0 343.7 153.6 343.7 343.7 0 190.1-153.6 343.7-343.7 343.7z"/>
	</g>
	<g id="e5f83b66-7263-4fa4-b899-c9b24e633999">
		<path id="Layer" fill-rule="evenodd" class="s1" d="m539.6 1080q-111.5 0-209.8-42.6-98.3-42.6-171.4-115.8-73.2-73.1-115.8-171.6-42.6-98.6-42.6-210.4 0-111.8 42.7-210.1 42.6-98.3 116.2-171.8 73.5-73.5 171.5-115.6 98.1-42.1 209.4-42.1 111.9 0 210.6 42.1 98.8 42 172 115.5 73.2 73.5 115.4 172.2 42.2 98.8 42.2 210.7 0 111.9-42.1 209.5-42.1 97.6-115.6 170.9-73.5 73.3-172.2 116.2-98.6 42.9-210.5 42.9zm-190-371.9h13.6q20.9 0 36.2-14.6 15.2-14.5 15.2-36.9 0-22.3-15.2-37-15.3-14.7-36.2-14.7h-13.9q-22.3 0-36.9 14.5-14.5 14.5-14.5 36.6 0 22.3 14.5 37.2 14.5 14.9 37.2 14.9zm-6.4-168.3h240.9q19.1 0 32.2-13 13.1-13.1 13.1-32.5 0-19.2-13.1-32-13.1-12.7-32.2-12.7h-241.3q-20.7 0-32.8 12.9-12.1 12.9-12.1 32 0 19.2 12.2 32.3 12.2 13 33.1 13zm0-155.2h240.9q19.1 0 32.2-13.1 13.1-13.1 13.1-32.5 0-19.2-13.1-31.9-13.1-12.8-32.2-12.8h-241.3q-20.7 0-32.8 12.9-12.1 13-12.1 32.1 0 19.1 12.2 32.2 12.2 13.1 33.1 13.1zm294 347.4l-41.3-41.3q-13-13.8-31.9-13.9-18.8-0.2-31.8 12.4-14.4 13.7-14.4 32.4 0 18.7 14.6 32.1l69 70q14.9 14.8 35 14.8 20.2 0 35.6-14.8l180-181.6q13.9-13.4 13.9-31.1 0-17.8-13.9-32.2-14.1-12.5-32.3-12.5-18.2 0-30.8 13z"/>
	</g>
	<g id="Layer">
		<g id="Layer">
		</g>
	</g>
	<g id="Layer">
		<g id="Layer">
		</g>
	</g>
</svg>