<?xml version="1.0" standalone="no"?>
<!DOCTYPE svg PUBLIC "-//W3C//DTD SVG 20010904//EN"
 "http://www.w3.org/TR/2001/REC-SVG-20010904/DTD/svg10.dtd">
<svg version="1.0" xmlns="http://www.w3.org/2000/svg"
 width="700.000000pt" height="700.000000pt" viewBox="0 0 700.000000 700.000000"
 preserveAspectRatio="xMidYMid meet">
<metadata>
Created by potrace 1.14, written by Peter Selinger 2001-2017
</metadata>
<g transform="translate(0.000000,700.000000) scale(0.100000,-0.100000)"
fill="#000000" stroke="none">
<path d="M3275 6994 c-22 -2 -89 -9 -150 -14 -667 -64 -1331 -346 -1869 -796
-437 -366 -782 -841 -1006 -1385 -252 -614 -315 -1323 -179 -2009 107 -535
381 -1097 754 -1543 437 -522 1068 -931 1722 -1116 514 -145 1075 -170 1607
-70 539 101 1081 352 1533 711 155 122 426 392 547 543 410 514 665 1120 743
1765 21 180 24 630 5 795 -53 442 -165 822 -357 1206 -523 1041 -1536 1754
-2695 1894 -127 15 -564 28 -655 19z m635 -1930 c104 -49 162 -142 163 -258 0
-94 -29 -161 -95 -221 -88 -79 -44 -76 -999 -73 l-844 3 -47 24 c-98 48 -151
140 -151 260 1 107 34 181 109 238 69 52 63 52 974 50 837 -2 845 -2 890 -23z
m-18 -1000 c185 -63 243 -313 109 -467 -18 -20 -58 -49 -89 -64 l-57 -28 -830
0 c-456 0 -851 4 -877 8 -85 15 -169 91 -198 182 -8 22 -13 70 -13 106 2 130
77 234 193 270 14 4 406 8 871 8 740 1 851 -1 891 -15z m1544 -764 c58 -25
111 -76 142 -134 36 -70 37 -180 3 -246 -16 -30 -220 -242 -625 -650 -331
-333 -612 -614 -626 -626 -62 -53 -110 -69 -205 -69 -80 0 -96 3 -141 28 -68
38 -562 533 -595 597 -33 62 -34 186 -2 245 32 61 111 129 172 150 68 22 159
16 221 -15 27 -13 108 -85 198 -173 l152 -151 523 521 c528 527 533 531 617
546 41 8 122 -4 166 -23z m-2961 -246 c35 -12 68 -36 112 -79 71 -71 93 -127
93 -235 0 -100 -23 -154 -94 -226 -82 -82 -131 -99 -286 -99 -102 1 -121 4
-170 26 -31 15 -72 40 -91 57 -98 86 -131 261 -76 395 35 83 135 159 235 177
68 13 219 4 277 -16z"/>
</g>
</svg>
